<svg xmlns="http://www.w3.org/2000/svg" viewBox="0 0 40 40" fill="none">
  <!-- Stacked Cards Icon -->
  <g transform="translate(2, 0)">
    <!-- Back card (slightly rotated) -->
    <rect x="8" y="2" width="26" height="36" rx="3" fill="#E5E7EB" stroke="#D1D5DB" stroke-width="1" transform="rotate(-8 21 20)"/>
    <!-- Middle card -->
    <rect x="6" y="2" width="26" height="36" rx="3" fill="#F3F4F6" stroke="#D1D5DB" stroke-width="1" transform="rotate(4 19 20)"/>
    <!-- Front card with design -->
    <rect x="4" y="2" width="26" height="36" rx="3" fill="white" stroke="#3B82F6" stroke-width="1.5"/>
    <!-- Card symbol - magic wand/star -->
    <path d="M17 10 L17 6 L15 9 L17 8 L19 9 L17 6 Z" fill="#3B82F6"/>
    <circle cx="17" cy="16" r="4" fill="#3B82F6"/>
    <path d="M13 20 Q17 26 21 20" stroke="#3B82F6" stroke-width="1.5" fill="none"/>
    <!-- Sparkle accent -->
    <path d="M26 4 L27 6 L29 5 L27 7 L28 9 L26 7 L24 9 L25 7 L23 5 L25 6 Z" fill="#F59E0B"/>
  </g>
</svg>
